<mxfile host="app.diagrams.net" modified="2024-04-10T12:41:07.764Z" agent="Mozilla/5.0 (Macintosh; Intel Mac OS X 10_15_7) AppleWebKit/537.36 (KHTML, like Gecko) Chrome/123.0.0.0 Safari/537.36" etag="GEXCoWamverrFcGBOTT5" version="24.2.3" type="github">
  <diagram name="Page-1" id="74e2e168-ea6b-b213-b513-2b3c1d86103e">
    <mxGraphModel dx="954" dy="739" grid="0" gridSize="10" guides="1" tooltips="1" connect="1" arrows="1" fold="1" page="1" pageScale="1" pageWidth="1100" pageHeight="850" background="none" math="0" shadow="0">
      <root>
        <mxCell id="0" />
        <mxCell id="1" parent="0" />
        <mxCell id="77e6c97f196da883-1" value="报名补偿" style="swimlane;html=1;childLayout=stackLayout;startSize=20;rounded=0;shadow=0;labelBackgroundColor=none;strokeWidth=1;fontFamily=Verdana;fontSize=8;align=center;" parent="1" vertex="1">
          <mxGeometry x="70" y="40" width="960" height="1244" as="geometry" />
        </mxCell>
        <mxCell id="77e6c97f196da883-2" value="活动" style="swimlane;html=1;startSize=20;" parent="77e6c97f196da883-1" vertex="1">
          <mxGeometry y="20" width="517" height="1224" as="geometry" />
        </mxCell>
        <mxCell id="3moCqNpRANm5J37BFYEO-3" value="" style="edgeStyle=none;curved=1;rounded=0;orthogonalLoop=1;jettySize=auto;html=1;fontSize=12;startSize=8;endSize=8;" edge="1" parent="77e6c97f196da883-2" source="3moCqNpRANm5J37BFYEO-1" target="3moCqNpRANm5J37BFYEO-2">
          <mxGeometry relative="1" as="geometry" />
        </mxCell>
        <mxCell id="3moCqNpRANm5J37BFYEO-1" value="开始" style="rounded=1;whiteSpace=wrap;html=1;" vertex="1" parent="77e6c97f196da883-2">
          <mxGeometry x="157" y="61" width="120" height="60" as="geometry" />
        </mxCell>
        <mxCell id="3moCqNpRANm5J37BFYEO-5" value="" style="edgeStyle=none;curved=1;rounded=0;orthogonalLoop=1;jettySize=auto;html=1;fontSize=12;startSize=8;endSize=8;" edge="1" parent="77e6c97f196da883-2" source="3moCqNpRANm5J37BFYEO-2" target="3moCqNpRANm5J37BFYEO-4">
          <mxGeometry relative="1" as="geometry" />
        </mxCell>
        <mxCell id="3moCqNpRANm5J37BFYEO-2" value="查询未完成报名且大于1分钟" style="whiteSpace=wrap;html=1;rounded=1;" vertex="1" parent="77e6c97f196da883-2">
          <mxGeometry x="157" y="241" width="120" height="60" as="geometry" />
        </mxCell>
        <mxCell id="3moCqNpRANm5J37BFYEO-15" value="" style="edgeStyle=none;curved=1;rounded=0;orthogonalLoop=1;jettySize=auto;html=1;fontSize=12;startSize=8;endSize=8;" edge="1" parent="77e6c97f196da883-2" source="3moCqNpRANm5J37BFYEO-4" target="3moCqNpRANm5J37BFYEO-14">
          <mxGeometry relative="1" as="geometry" />
        </mxCell>
        <mxCell id="3moCqNpRANm5J37BFYEO-4" value="划转报名费" style="whiteSpace=wrap;html=1;rounded=1;" vertex="1" parent="77e6c97f196da883-2">
          <mxGeometry x="157" y="421" width="120" height="60" as="geometry" />
        </mxCell>
        <mxCell id="3moCqNpRANm5J37BFYEO-17" value="" style="edgeStyle=none;curved=1;rounded=0;orthogonalLoop=1;jettySize=auto;html=1;fontSize=12;startSize=8;endSize=8;" edge="1" parent="77e6c97f196da883-2" source="3moCqNpRANm5J37BFYEO-14" target="3moCqNpRANm5J37BFYEO-16">
          <mxGeometry relative="1" as="geometry" />
        </mxCell>
        <mxCell id="3moCqNpRANm5J37BFYEO-14" value="更新划转成功or失败" style="whiteSpace=wrap;html=1;rounded=1;" vertex="1" parent="77e6c97f196da883-2">
          <mxGeometry x="157" y="601" width="120" height="60" as="geometry" />
        </mxCell>
        <mxCell id="3moCqNpRANm5J37BFYEO-16" value="结束" style="whiteSpace=wrap;html=1;rounded=1;" vertex="1" parent="77e6c97f196da883-2">
          <mxGeometry x="157" y="781" width="120" height="60" as="geometry" />
        </mxCell>
        <mxCell id="77e6c97f196da883-3" value="合约" style="swimlane;html=1;startSize=20;" parent="77e6c97f196da883-1" vertex="1">
          <mxGeometry x="517" y="20" width="160" height="1224" as="geometry" />
        </mxCell>
        <mxCell id="3moCqNpRANm5J37BFYEO-6" value="合约划转&lt;div&gt;支持幂等&lt;/div&gt;&lt;div&gt;支持区分是业务失败还是网络失败&lt;/div&gt;" style="whiteSpace=wrap;html=1;rounded=1;" vertex="1" parent="77e6c97f196da883-3">
          <mxGeometry x="24" y="421" width="120" height="60" as="geometry" />
        </mxCell>
        <mxCell id="3moCqNpRANm5J37BFYEO-7" value="" style="edgeStyle=none;curved=1;rounded=0;orthogonalLoop=1;jettySize=auto;html=1;fontSize=12;startSize=8;endSize=8;" edge="1" parent="77e6c97f196da883-1" source="3moCqNpRANm5J37BFYEO-4" target="3moCqNpRANm5J37BFYEO-6">
          <mxGeometry relative="1" as="geometry" />
        </mxCell>
      </root>
    </mxGraphModel>
  </diagram>
</mxfile>
